<svg width="260" height="292" viewBox="0 0 260 292" fill="none" xmlns="http://www.w3.org/2000/svg">
<path d="M100.723 103.978H99.2825V0H214.548V37.6334H213.107V1.43913H100.723V103.978Z" fill="#231F20"/>
<path d="M214.548 227.383H99.2825V121.175H100.723V225.944H213.107V161.687H214.548V227.383Z" fill="#231F20"/>
<path d="M85.9552 291.641H20.5421V216.95H21.9829V290.202H85.9552V291.641Z" fill="#231F20"/>
<path d="M21.9829 199.608H20.5421V178.453H37.4717V179.892H21.9829V199.608Z" fill="#231F20"/>
<path d="M100.003 178.453H79.9034V179.892H100.003V178.453Z" fill="#231F20"/>
<path d="M213.828 199.104H100.003V200.543H213.828V199.104Z" fill="#231F20"/>
<path d="M157.275 219.684C153.457 219.684 150.287 216.59 150.287 212.704C150.287 208.89 153.385 205.724 157.275 205.724C161.166 205.724 164.263 208.819 164.263 212.704C164.263 216.59 161.166 219.684 157.275 219.684ZM157.275 207.235C154.25 207.235 151.728 209.682 151.728 212.776C151.728 215.87 154.178 218.317 157.275 218.317C160.373 218.317 162.823 215.87 162.823 212.776C162.823 209.682 160.373 207.235 157.275 207.235Z" fill="#231F20"/>
<path d="M242.067 118.009C239.978 118.009 238.249 116.282 238.249 114.195C238.249 112.109 239.978 110.382 242.067 110.382C244.156 110.382 245.885 112.109 245.885 114.195C245.885 116.282 244.156 118.009 242.067 118.009ZM242.067 111.749C240.77 111.749 239.69 112.828 239.69 114.123C239.69 115.419 240.77 116.498 242.067 116.498C243.364 116.498 244.445 115.419 244.445 114.123C244.445 112.828 243.364 111.749 242.067 111.749Z" fill="#231F20"/>
<path d="M213.827 265.952C206.407 265.952 200.428 259.908 200.428 252.568C200.428 245.229 206.479 239.184 213.827 239.184C221.175 239.184 227.227 245.229 227.227 252.568C227.227 259.908 221.247 265.952 213.827 265.952ZM213.827 240.623C207.2 240.623 201.868 246.02 201.868 252.568C201.868 259.116 207.272 264.513 213.827 264.513C220.383 264.513 225.786 259.116 225.786 252.568C225.786 246.02 220.455 240.623 213.827 240.623Z" fill="#231F20"/>
<path d="M37.9385 226.299L20.6497 259.413L21.9273 260.079L39.2161 226.964L37.9385 226.299Z" fill="#231F20"/>
<path d="M57.7739 236.493L32.6306 290.681L33.9379 291.286L59.0812 237.098L57.7739 236.493Z" fill="#231F20"/>
<path d="M66.6757 238.767L59.718 290.833L61.1462 291.024L68.1038 238.958L66.6757 238.767Z" fill="#231F20"/>
<path d="M37.1829 229.254L66.2874 246.812L67.368 238.896L38.5517 226.664L37.1829 229.254Z" fill="#231F20"/>
<path d="M76.878 244.293L33.8696 225.225L45.036 193.348L15.4272 224.001L6.92636 217.309L7.3586 216.734C7.57473 216.446 28.8268 188.023 36.9674 178.669C37.3276 178.237 37.7598 177.733 38.2641 177.158C40.1372 174.999 42.6586 172.049 44.8919 169.818C47.4853 167.228 53.2486 163.63 55.77 162.334L56.4184 163.63C54.0411 164.853 48.3498 168.451 45.8284 170.897C43.5951 173.128 41.1458 176.006 39.2727 178.165C38.7684 178.741 38.3362 179.244 37.976 179.676C30.5557 188.239 11.8972 213.064 8.87146 217.094L15.2111 222.131L48.4939 187.663L35.6706 224.505L75.5092 242.135C75.7974 234.291 77.5264 185.289 80.336 170.753C83.1455 156.362 92.727 135.423 94.456 131.609L87.8282 127.507L63.9107 159.096L62.758 158.233L87.468 125.565L96.257 131.033L95.9688 131.609C95.8247 131.825 84.7304 155.427 81.7047 170.969C78.679 186.584 76.878 242.638 76.878 243.142V244.293Z" fill="#231F20"/>
<path d="M128.531 63.6097L124.064 59.2923C123.56 60.5876 122.624 62.4584 120.895 62.6743C118.301 62.9621 114.771 60.3717 112.754 46.2682L112.538 44.6132L113.907 45.6205C114.699 46.1962 117.148 47.7073 118.589 47.7073C119.382 47.7073 120.39 47.4195 121.399 47.1316C122.84 46.6999 124.208 46.3401 125.217 46.628C125.649 46.7719 126.01 47.0597 126.226 47.4195C126.802 48.4988 126.514 50.2258 126.298 51.1612L133.934 55.9823L133.142 57.2056L124.641 51.8088L124.785 51.3051C125.073 50.3697 125.289 48.7147 125.001 48.139C124.929 48.0671 124.929 47.9951 124.857 47.9951C124.208 47.7793 122.984 48.139 121.831 48.4988C120.751 48.7866 119.598 49.1464 118.589 49.1464C117.221 49.1464 115.564 48.3549 114.411 47.6353C116.5 60.6595 119.742 61.3071 120.751 61.2352C121.975 61.0913 122.84 58.6447 123.056 57.7812L123.344 56.558L129.612 62.5304L128.531 63.6097Z" fill="#231F20"/>
<path d="M151.44 51.9528C151.368 51.2332 150.936 45.1169 148.126 43.9656C146.613 43.39 145.028 43.5339 143.66 43.7497C142.579 43.8937 141.57 43.9656 140.994 43.6778C140.058 43.1741 139.625 41.9508 139.121 40.6556C138.473 38.9286 137.752 36.9139 135.591 36.1943C132.853 35.2589 130.116 36.9139 127.883 38.2091C127.018 38.7128 126.154 39.2165 125.577 39.4323C124.425 39.7921 123.2 39.4323 121.831 38.9286C120.895 38.6408 119.886 38.281 118.805 38.2091C117.149 38.0652 114.555 39.0726 113.114 41.1593C112.034 42.7423 111.89 44.6132 112.826 46.4121L112.898 46.5561L114.627 47.6354C116.212 48.5708 117.581 49.0026 118.589 49.0026C119.598 49.0026 120.679 48.6428 121.831 48.355C122.984 47.9952 124.209 47.6354 124.857 47.8513C124.929 47.8513 124.929 47.8513 125.001 47.9952C125.361 48.5708 125.073 50.2258 124.785 51.1613L124.641 51.665L133.43 57.2056L151.512 52.3126L151.44 51.9528Z" fill="#231F20"/>
<path d="M216.061 121.247L214.908 120.384C225.858 105.633 231.621 88.0751 231.621 69.7261C231.621 57.8533 229.244 46.3402 224.489 35.6186L150.864 52.7443L150.503 51.3772L225.282 33.9636L225.498 34.5393C230.469 45.6926 232.99 57.4935 232.99 69.7981C233.062 88.4349 227.155 106.208 216.061 121.247Z" fill="#231F20"/>
<path d="M95.0322 116.786L94.7441 116.138C94.7441 116.138 94.3839 115.563 91.7904 112.325L91.3582 111.821L91.8624 111.389C92.3667 110.885 93.5914 109.95 95.2484 108.583C95.9688 108.007 96.6892 107.431 97.4816 106.784L98.4182 107.935C97.6257 108.583 96.8333 109.23 96.1849 109.734C95.0322 110.669 94.0237 111.461 93.3753 112.037C94.1677 113.044 95.1763 114.267 95.6806 115.059C99.2106 113.62 119.31 105.201 125.289 98.0771C129.684 92.8242 139.049 75.2668 139.121 75.0509L140.418 75.6985C140.058 76.4181 130.909 93.6157 126.442 98.9405C119.67 107 96.6892 116.138 95.6806 116.57L95.0322 116.786Z" fill="#231F20"/>
<path d="M106.63 100.955L105.694 99.876C110.016 96.1343 113.114 93.0401 114.987 90.8095C120.39 84.1894 123.344 74.4753 124.64 70.3737L124.857 69.7261C125.433 67.8553 127.738 61.3072 132.493 56.63L133.502 57.6374C128.963 62.0987 126.802 68.359 126.225 70.1579L126.009 70.8055C124.713 75.0509 121.615 84.909 116.068 91.7449C114.195 94.0475 110.953 97.2136 106.63 100.955Z" fill="#231F20"/>
<path d="M117.725 121.679L110.304 115.131L110.809 114.555C110.953 114.411 122.551 101.675 125.289 97.9331L126.441 98.7966C123.992 102.251 114.627 112.468 112.321 114.987L117.797 119.808C120.102 118.153 130.188 110.741 134.654 105.704C140.778 98.8686 146.253 86.8518 146.325 86.7079L147.621 87.2835C147.405 87.7872 142.002 99.5881 135.735 106.64C130.548 112.396 118.661 120.887 118.157 121.247L117.725 121.679Z" fill="#231F20"/>
<path d="M241.851 178.597C240.843 178.597 239.834 177.661 238.105 175.718C237.529 175.071 236.52 173.704 235.368 172.049C233.567 169.458 231.117 166.004 229.965 165.285C228.956 164.709 218.15 163.054 209.505 161.759C199.996 160.32 190.991 158.952 189.19 158.305C186.236 157.154 179.32 154.563 174.781 144.921C170.747 136.214 161.166 91.7448 161.022 91.3131L162.462 91.0253C164.912 102.538 172.692 137.078 176.078 144.345C180.329 153.412 186.884 155.93 189.694 156.938C191.279 157.585 200.644 158.952 209.721 160.32C223.193 162.334 229.677 163.414 230.685 163.989C231.982 164.781 234.071 167.587 236.52 171.185C237.601 172.696 238.61 174.135 239.114 174.711C239.69 175.287 240.627 176.366 241.275 176.87C241.131 174.999 240.339 169.89 238.466 159.96C238.249 158.737 237.313 157.729 236.088 157.441C232.63 156.578 226.435 154.923 223.913 154.059C222.544 153.556 219.014 151.901 214.908 150.03C208.785 147.152 201.22 143.626 198.987 143.194C198.483 143.122 197.907 143.913 197.474 144.489C196.97 145.209 196.394 145.928 195.601 145.64C194.809 145.353 194.593 144.417 194.377 143.482C194.304 143.338 194.304 143.05 194.232 142.906C194.016 142.978 193.728 142.978 193.512 143.05C191.999 143.338 190.774 143.626 190.27 142.762C189.838 142.043 190.486 141.323 191.279 140.46C191.639 140.028 192.648 138.948 192.575 138.661C191.855 135.998 187.893 121.103 187.821 120.959L189.19 120.599C189.262 120.743 193.224 135.638 193.944 138.301C194.232 139.38 193.224 140.46 192.359 141.467C192.215 141.611 192.071 141.755 191.999 141.899C192.431 141.827 192.936 141.755 193.224 141.683C194.016 141.539 194.449 141.467 194.737 141.539C195.385 141.683 195.529 142.402 195.745 143.194C195.817 143.41 195.889 143.77 195.961 143.985C196.033 143.842 196.178 143.698 196.25 143.626C196.898 142.762 197.834 141.539 199.131 141.755C201.509 142.187 208.857 145.64 215.412 148.663C219.447 150.534 222.905 152.189 224.273 152.62C226.723 153.484 232.846 155.067 236.304 155.93C238.033 156.362 239.402 157.801 239.69 159.6C243.004 177.229 242.644 177.805 242.356 178.165L242.212 178.381L241.851 178.453C241.996 178.597 241.923 178.597 241.851 178.597Z" fill="#231F20"/>
<path d="M258.853 178.597C258.709 178.597 258.564 178.525 258.42 178.453C257.052 177.661 250.28 169.242 248.191 166.652C246.318 164.277 242.427 161.399 239.906 159.456C239.33 159.024 238.753 158.593 238.393 158.305C237.456 157.513 230.541 153.412 223.264 149.022C214.548 143.77 204.606 137.725 202.156 135.998C199.923 134.343 192.503 125.924 183.93 116.138C175.285 106.352 166.424 96.2062 162.318 92.5364C159.941 90.3777 155.474 87.3555 153.745 87.5714C151.007 87.8592 139.769 88.4349 134.942 85.7725L135.663 84.4773C140.129 86.9238 151.152 86.3481 153.601 86.0603C156.339 85.7725 161.67 89.946 163.326 91.3851C167.505 95.1269 176.438 105.273 185.083 115.131C193.223 124.413 201.004 133.192 203.093 134.775C205.47 136.502 215.34 142.474 224.057 147.727C231.693 152.332 238.249 156.362 239.33 157.154C239.762 157.441 240.266 157.873 240.842 158.305C243.436 160.248 247.398 163.198 249.415 165.716C252.945 170.106 256.835 174.783 258.492 176.51C258.492 173.344 256.98 163.558 255.971 161.975C254.674 159.96 251.288 157.226 248.047 154.563C246.966 153.628 242.571 148.735 237.961 143.482C233.782 138.733 229.46 133.84 228.235 132.688C226.434 131.033 221.968 127.435 219.014 125.133C217.717 124.125 216.781 123.334 216.421 123.046C215.628 122.398 213.467 118.873 209.433 112.181C203.525 102.394 194.592 87.6433 190.342 84.1175C187.316 81.6709 182.057 79.5842 177.302 77.7853C175.141 76.9218 173.124 76.1303 171.539 75.4107C169.234 74.3314 166.712 72.4605 163.543 70.1579C159.941 67.5674 155.546 64.2574 149.351 60.5876C144.884 57.9252 137.536 56.558 133.285 57.7093L132.925 56.3422C137.536 55.1189 145.244 56.4861 150.071 59.3643C156.266 63.1061 160.733 66.3441 164.335 69.0065C167.433 71.3092 169.882 73.1081 172.115 74.1155C173.628 74.8351 175.645 75.6266 177.807 76.4181C182.633 78.289 188.036 80.3757 191.206 83.0381C195.673 86.7079 204.318 101.027 210.657 111.461C213.755 116.57 216.637 121.391 217.357 121.967C217.717 122.255 218.654 123.046 219.951 124.053C222.904 126.428 227.443 130.026 229.244 131.681C230.541 132.904 234.719 137.581 239.113 142.546C243.508 147.511 248.047 152.62 249.055 153.484C252.513 156.362 255.827 159.024 257.268 161.183C258.348 162.766 260.942 176.942 259.645 178.237C259.285 178.525 259.069 178.597 258.853 178.597Z" fill="#231F20"/>
<path d="M167.289 165.932H143.443V167.371H167.289V165.932Z" fill="#231F20"/>
<path d="M167.289 177.157H119.598V178.597H167.289V177.157Z" fill="#231F20"/>
<path d="M122.623 172.768L114.915 166.652L122.623 160.536L123.56 161.687L117.292 166.652L123.56 171.617L122.623 172.768Z" fill="#231F20"/>
<path d="M135.161 160.74L130.016 171.042L131.305 171.684L136.451 161.382L135.161 160.74Z" fill="#231F20"/>
<path d="M107.639 128.083C107.135 128.083 106.919 127.867 106.774 127.723C105.622 126.356 107.279 124.413 108.792 122.686C109.008 122.47 109.224 122.183 109.44 121.895C108.431 122.183 107.351 122.398 106.774 121.751C105.838 120.743 106.558 120.096 109.224 117.577C109.872 117.002 110.665 116.21 111.601 115.347L112.105 114.915L118.805 120.815L118.157 121.319C111.457 127.004 108.792 128.083 107.639 128.083ZM110.376 120.168C110.665 120.168 110.953 120.24 111.097 120.456C111.817 121.247 111.025 122.111 109.8 123.55C109.224 124.269 107.639 126.068 107.783 126.644C108.864 126.572 113.042 123.694 116.644 120.743L112.178 116.786C111.457 117.505 110.809 118.081 110.232 118.585C109.296 119.448 108.503 120.168 108.143 120.599C108.431 120.528 108.864 120.456 109.152 120.384C109.584 120.312 110.016 120.168 110.376 120.168Z" fill="#231F20"/>
<path d="M1.37896 229.686C1.01876 229.686 0.730593 229.614 0.442429 229.398C0.298348 229.254 0.0822265 229.038 0.0101857 228.607C-0.277978 226.52 5.62937 218.964 7.43039 216.734L7.86263 216.158L14.7786 221.771L14.3463 222.346C13.4818 223.498 12.7614 224.433 12.1851 225.225C9.73569 228.391 9.01529 229.326 7.93467 228.535C7.21427 228.031 7.35835 227.024 7.43039 226.088V226.016C6.99814 226.304 6.49386 226.736 6.06161 227.096C4.40467 228.391 2.67569 229.686 1.37896 229.686ZM1.37896 228.247C2.09937 228.319 4.18855 226.664 5.12508 225.944C6.78202 224.577 7.71855 223.857 8.511 224.433C9.01529 224.793 8.94325 225.44 8.8712 226.232C8.8712 226.448 8.79916 226.808 8.79916 227.024C9.23141 226.592 10.0239 225.512 10.9604 224.289C11.4647 223.642 12.041 222.85 12.7614 221.987L8.07875 218.173C4.83692 222.274 1.59508 226.952 1.37896 228.247Z" fill="#231F20"/>
<path d="M161.742 91.1692L156.915 87.8592C156.915 87.8592 165.2 74.7631 166.424 71.525L170.891 74.4033C169.522 78.6487 162.75 89.5142 161.309 90.8094" fill="#231F20"/>
<path d="M208.73 146.448L205.033 160.284L206.425 160.655L210.122 146.819L208.73 146.448Z" fill="#231F20"/>
<path d="M213.828 17.7733H100.003V19.2124H213.828V17.7733Z" fill="#231F20"/>
<path d="M205.735 7.0048L200.997 11.7367L202.016 12.7543L206.754 8.02241L205.735 7.0048Z" fill="#231F20"/>
<path d="M202.016 6.95394L200.997 7.97156L205.735 12.7035L206.754 11.6858L202.016 6.95394Z" fill="#231F20"/>
<path d="M232.523 136.784L223.881 148.567L225.044 149.418L233.685 137.634L232.523 136.784Z" fill="#231F20"/>
<path d="M58.3636 164.709C57.2829 164.709 56.0583 164.421 55.1938 163.63L54.9776 163.414L54.6895 151.109H56.1303L56.4185 162.766C57.8593 163.774 60.3087 163.198 61.1011 162.622C62.1817 161.903 63.1903 159.888 62.3978 158.089V158.017L61.0291 153.7L62.3978 153.268L63.7666 157.585C64.8472 160.032 63.6225 162.766 61.9656 163.917C61.2452 164.277 59.8044 164.709 58.3636 164.709Z" fill="#231F20"/>
<path d="M63.6223 154.131C60.8848 154.131 56.9946 151.901 55.8419 151.253C55.1215 151.325 53.1764 151.469 51.7356 150.102C50.8711 149.382 50.583 148.375 50.9432 147.367C51.1593 146.648 51.7356 146 52.3119 145.712C52.384 145.496 52.384 145.209 52.456 144.921C52.6001 143.841 52.8883 142.186 53.5366 140.747C54.6172 138.373 56.7785 136.862 56.8505 136.79L57.2828 136.43L57.715 136.79C60.7407 139.452 67.4405 148.159 66.2878 152.26C66.0717 152.98 65.5674 153.556 64.847 153.843C64.4868 154.059 64.0546 154.131 63.6223 154.131ZM56.1301 149.742L56.3462 149.886C58.5795 151.253 62.7579 153.196 64.3427 152.548C64.6309 152.404 64.775 152.26 64.9191 151.901C65.7836 148.95 60.5246 141.467 57.2828 138.301C56.6344 138.876 55.4817 139.956 54.8334 141.323C54.257 142.546 54.0409 144.129 53.8968 145.137C53.7527 146.288 53.6087 146.936 52.9603 147.008C52.8162 147.08 52.456 147.439 52.3119 147.871C52.2399 148.231 52.384 148.591 52.7442 148.95C54.0409 150.102 55.8419 149.67 55.914 149.67L56.1301 149.742Z" fill="#231F20"/>
<path d="M57.8589 136.934C54.1848 132.472 48.4215 133.336 44.1711 135.567C43.7389 135.782 39.9207 137.941 40.425 139.668C40.9293 141.251 42.2981 140.963 43.0185 140.891C43.1626 140.891 43.3066 140.819 43.4507 140.819C43.1626 141.323 42.154 142.474 41.5056 143.266C39.5605 145.425 37.5434 147.655 38.3358 149.382C38.9121 150.606 40.497 150.246 41.7217 149.958C42.2981 149.814 43.4507 149.526 43.6668 149.742C43.883 149.958 43.883 150.246 43.5948 151.037C43.3066 151.901 42.9464 153.268 44.2432 154.203C44.5313 154.419 44.8915 154.563 45.3238 154.563C47.557 154.563 51.087 151.613 52.6719 150.174L53.2483 149.67L52.6719 149.166C52.3117 148.807 52.1677 148.447 52.2397 148.087C52.3117 147.583 52.744 147.224 52.8881 147.224C53.5364 147.152 53.6805 146.504 53.8246 145.353C53.9687 144.345 54.1848 142.834 54.7611 141.539C55.6977 139.524 57.6428 138.157 57.6428 138.085L58.2911 137.653L57.8589 136.934Z" fill="#231F20"/>
<path d="M139.77 285.884H85.9556V290.921H139.77V285.884Z" fill="#231F20"/>
<path d="M140.49 291.641H85.2346V285.165H140.49V291.641ZM86.6754 290.201H139.049V286.604H86.6754V290.201Z" fill="#231F20"/>
<path d="M140.202 286.604H104.037L120.607 258.9H156.771L140.202 286.604ZM106.559 285.165H139.337L154.178 260.34H121.471L106.559 285.165Z" fill="#231F20"/>
<path d="M23.4593 196.351L22.4412 197.369L31.0574 205.962L32.0755 204.943L23.4593 196.351Z" fill="#231F20"/>
<path d="M94.8563 115.413L87.1429 126.181L88.3147 127.019L96.0281 116.251L94.8563 115.413Z" fill="#231F20"/>
<path d="M103.521 111.716L94.7207 131.037L96.0321 131.633L104.833 112.312L103.521 111.716Z" fill="#231F20"/>
<path d="M88.5482 124.773C88.4762 124.557 86.0268 118.872 91.718 111.461L92.8707 112.324C87.6837 118.944 89.7729 123.909 89.845 124.125L88.5482 124.773Z" fill="#231F20"/>
<path d="M96.6168 108.583L97.2652 107C98.5619 103.906 101.588 100.811 103.317 100.308C105.19 99.7321 107.783 99.3723 109.224 100.236C109.8 100.596 110.161 101.099 110.233 101.675C110.593 103.69 107.279 104.697 104.325 105.633C103.533 105.848 102.74 106.136 102.308 106.28C100.507 107.072 98.1297 108.007 98.1297 108.007L96.6168 108.583ZM106.991 101.171C105.982 101.171 104.83 101.387 103.821 101.675C102.956 101.963 100.939 103.618 99.4985 105.92C100.219 105.633 101.083 105.273 101.876 104.913C102.38 104.697 103.173 104.481 104.037 104.193C105.262 103.834 109.08 102.682 108.936 101.891C108.864 101.675 108.792 101.531 108.576 101.387C108.215 101.243 107.639 101.171 106.991 101.171Z" fill="#231F20"/>
<path d="M216.997 248.107C217.285 247.747 217.646 247.387 218.006 247.028C218.366 246.74 218.798 246.596 219.231 246.38C219.375 246.308 219.519 246.38 219.591 246.524C219.879 247.387 219.951 248.323 219.663 249.186C219.663 249.258 219.591 249.474 219.663 249.546C220.383 250.266 220.671 251.201 220.743 252.136C220.815 253.144 220.96 254.151 220.671 255.159C220.167 257.101 218.798 258.109 216.997 258.685C216.637 258.756 216.205 258.828 215.845 258.972C216.349 259.764 216.421 260.555 216.421 261.419C216.421 262.57 216.421 263.721 216.421 264.801C216.421 264.945 216.421 265.017 216.421 265.161C214.764 265.161 213.107 265.161 211.378 265.161C211.378 264.297 211.378 263.506 211.378 262.786C210.802 262.786 210.298 262.786 209.793 262.786C208.496 262.714 207.56 261.995 206.912 260.843C206.623 260.34 206.335 259.836 205.975 259.332C205.831 259.116 205.543 258.9 205.399 258.756C205.327 258.685 205.183 258.541 204.966 258.397C205.183 258.325 205.327 258.325 205.471 258.325C206.407 258.325 207.056 258.756 207.488 259.548C208.064 260.555 208.929 261.059 210.153 261.059C210.298 261.059 210.442 261.059 210.514 261.059C211.234 260.987 211.234 260.915 211.378 260.268C211.45 259.836 211.666 259.404 211.81 258.972C211.306 258.828 210.802 258.756 210.298 258.613C208.208 257.893 207.056 256.454 206.912 254.223C206.84 253.216 206.984 252.28 207.128 251.273C207.2 250.697 207.488 250.122 207.92 249.69C208.064 249.546 208.064 249.402 207.992 249.258C207.632 248.251 207.704 247.315 208.136 246.38C209.289 246.596 209.937 247.387 210.586 248.179C212.747 247.387 214.836 247.387 216.997 248.107Z" fill="#231F20"/>
<path d="M58.2913 92.3205C57.787 92.3205 57.2827 92.3205 56.7784 92.3205C56.7064 92.3205 56.5623 92.2485 56.4903 92.2485C52.456 91.8888 49.1421 89.0105 48.2056 85.1248C48.0615 84.4772 47.9894 83.7576 47.8454 83.11C47.8454 82.6783 47.8454 82.3185 47.8454 81.8868C47.8454 81.7429 47.9174 81.5989 47.9174 81.455C48.2776 78.3609 49.6464 75.9863 52.3119 74.3313C54.329 73.108 56.6343 72.7483 58.9396 73.0361C61.245 73.3239 63.1901 74.4033 64.775 76.1302C63.7664 77.1376 62.7578 78.0731 61.7492 79.0804C61.6052 78.9365 61.4611 78.7926 61.245 78.6487C60.0923 77.6413 58.7956 77.1376 57.2107 77.2096C53.7527 77.2815 51.5194 80.0159 52.0958 83.5418C52.456 85.5566 53.6086 87.0676 55.5537 87.7153C57.5709 88.3629 59.516 88.075 61.1729 86.6359C61.389 86.492 61.6052 86.2761 61.7492 86.1322C62.7578 87.1396 63.7664 88.147 64.7029 89.1544C63.4782 90.4496 62.0374 91.3851 60.3084 91.8888C59.8041 92.1046 59.0117 92.1766 58.2913 92.3205Z" fill="black"/>
<path d="M60.5964 82.6782C60.5964 84.4772 59.1556 85.8443 57.3546 85.8443C55.6256 85.8443 54.1848 84.4052 54.1848 82.6063C54.1848 80.8074 55.6256 79.4402 57.4266 79.4402C59.1556 79.4402 60.5964 80.8074 60.5964 82.6782Z" fill="black"/>
</svg>
