<svg xmlns="http://www.w3.org/2000/svg" width="25" height="20"><path d="M16.333.004V0h1.146l.42.084c.28.056.533.127.76.216a5.35 5.35 0 0 1 .661.311c.213.118.406.238.58.36a3.59 3.59 0 0 1 .463.387c.136.138.347.172.633.107a8.67 8.67 0 0 0 .926-.278l.98-.4.59-.282.11-.067.003-.006.09-.044.003-.007.013-.01.004-.007.022-.007.022-.004-.004.033-.007.033-.022.067-.022.044-.01.033c-.01.03-.017.06-.022.09-.007.037-.077.184-.21.443s-.298.522-.496.79-.377.467-.533.603l-.316.29a.95.95 0 0 1-.187.156l-.11.072-.044.022-.003.007-.013.01-.004.007-.044.022-.004.007-.013.01-.01.013-.013.01-.004.007h.11l.617-.133c.41-.09.804-.196 1.18-.322l.696-.233.022-.01.02-.01.044-.022.044-.006.043-.004v.044l-.01.004-.01.007-.004.007-.013.01-.01.013-.013.01-.004.007-.003.007-.007.004-.022.044-.007.003-.28.378-.298.378c-.014.004-.036.027-.062.067s-.18.206-.467.494l-.842.77c-.276.227-.416.506-.42.836l-.05 1.113c-.03.414-.084.862-.167 1.344s-.204 1.023-.373 1.63-.375 1.198-.618 1.777-.496 1.094-.76 1.553a14.98 14.98 0 0 1-1.4 2.064 13.11 13.11 0 0 1-.864.95l-.572.578a13.96 13.96 0 0 1-.433.363l-.814.636-.798.526-.878.482a10.4 10.4 0 0 1-1.107.506l-1.256.433a11.46 11.46 0 0 1-1.279.311l-1.4.19-.782.077V20H6.987v-.01l-.187-.01-.31-.022-.914-.122-1.244-.222-1.346-.422a13.03 13.03 0 0 1-1.528-.628l-.793-.4-.357-.203-.2-.122-.004-.007-.013-.01-.004-.007-.044-.022-.003-.007-.013-.01-.01-.013-.007-.004H0v-.044l.022.004.022.007.1.01c.067.008.246.02.54.033 1.07.05 2.143-.073 3.174-.367.443-.116.876-.266 1.296-.448l.838-.39c.26-.143.51-.3.753-.47l.508-.344.004-.007.007-.004.006-.004.01-.013.013-.01.004-.007.022-.007.022-.004.004-.022.007-.022.007-.004.004-.007-.177-.01-.34-.022a3.29 3.29 0 0 1-.519-.1 4.95 4.95 0 0 1-.76-.267 5.85 5.85 0 0 1-.793-.421c-.198-.118-.384-.254-.558-.406l-.44-.453a4.49 4.49 0 0 1-.467-.606 5.46 5.46 0 0 1-.38-.718l-.182-.403-.022-.067-.007-.022-.004-.022.033.004.033.007.242.033c.16.022.414.03.76.022l.717-.044.242-.044.044-.01.056-.01.054-.01.004-.007.013-.01.004-.007-.133-.033-.043-.01-.044-.01-.153-.044-.596-.244a4.54 4.54 0 0 1-.771-.411c-.192-.133-.374-.28-.547-.437-.202-.193-.392-.4-.567-.617-.217-.27-.402-.565-.55-.878-.15-.305-.273-.625-.363-.953-.08-.302-.134-.61-.16-.922l-.04-.466.022.004.022.007.067.033.02.01.342.156c.228.103.51.192.848.267l.607.122.1.01h.198l-.004-.008-.013-.01-.01-.013-.013-.01-.004-.007-.044-.022-.004-.007-.013-.01-.004-.007-.044-.022-.003-.007-.19-.14a2.9 2.9 0 0 1-.38-.362l-.397-.467a3.6 3.6 0 0 1-.352-.521c-.123-.228-.232-.464-.327-.706-.218-.546-.34-1.127-.357-1.714-.008-.28 0-.522.022-.72s.066-.426.13-.678a5.3 5.3 0 0 1 .287-.798l.188-.422L1.664.9 1.67.906l.01-.013.007-.003.007.004.004.007.003.007.013.01.01.013.007.004.022.044.007.004.004.007.298.333.706.743.45.427c.03.01.067.044.11.1s.2.187.44.393a13.49 13.49 0 0 0 .981.722c.404.273.852.543 1.344.81a13.09 13.09 0 0 0 1.587.722l1.19.422c.228.067.617.15 1.168.256l1.244.2.574.05.154.004-.004-.033-.007-.033-.044-.278a5.31 5.31 0 0 1-.044-.777 5.07 5.07 0 0 1 .078-.922c.05-.28.128-.566.23-.853s.203-.52.302-.696a6.89 6.89 0 0 1 .392-.592c.16-.222.37-.45.628-.69s.55-.447.882-.632.636-.326.914-.422.514-.158.706-.19l.287-.05V.004z" fill="#000" fill-rule="evenodd"/></svg>